<svg width="558" height="101" viewBox="0 0 558 101" fill="none" xmlns="http://www.w3.org/2000/svg">
<path d="M14.7656 21.0566H18.4277C18.3105 22.4531 17.9199 23.6982 17.2559 24.792C16.5918 25.876 15.6592 26.7305 14.458 27.3555C13.2568 27.9805 11.7969 28.293 10.0781 28.293C8.75977 28.293 7.57324 28.0586 6.51855 27.5898C5.46387 27.1113 4.56055 26.4375 3.80859 25.5684C3.05664 24.6895 2.48047 23.6299 2.08008 22.3896C1.68945 21.1494 1.49414 19.7627 1.49414 18.2295V16.457C1.49414 14.9238 1.69434 13.5371 2.09473 12.2969C2.50488 11.0566 3.09082 9.99707 3.85254 9.11816C4.61426 8.22949 5.52734 7.55078 6.5918 7.08203C7.66602 6.61328 8.87207 6.37891 10.21 6.37891C11.9092 6.37891 13.3447 6.69141 14.5166 7.31641C15.6885 7.94141 16.5967 8.80566 17.2412 9.90918C17.8955 11.0127 18.2959 12.2773 18.4424 13.7031H14.7803C14.6826 12.7852 14.4678 11.999 14.1357 11.3447C13.8135 10.6904 13.335 10.1924 12.7002 9.85059C12.0654 9.49902 11.2354 9.32324 10.21 9.32324C9.37012 9.32324 8.6377 9.47949 8.0127 9.79199C7.3877 10.1045 6.86523 10.5635 6.44531 11.1689C6.02539 11.7744 5.70801 12.5215 5.49316 13.4102C5.28809 14.2891 5.18555 15.2949 5.18555 16.4277V18.2295C5.18555 19.3037 5.27832 20.2803 5.46387 21.1592C5.65918 22.0283 5.95215 22.7754 6.34277 23.4004C6.74316 24.0254 7.25098 24.5088 7.86621 24.8506C8.48145 25.1924 9.21875 25.3633 10.0781 25.3633C11.123 25.3633 11.9678 25.1973 12.6123 24.8652C13.2666 24.5332 13.7598 24.0498 14.0918 23.415C14.4336 22.7705 14.6582 21.9844 14.7656 21.0566ZM20.7422 20.251V19.9141C20.7422 18.7715 20.9082 17.7119 21.2402 16.7354C21.5723 15.749 22.0508 14.8945 22.6758 14.1719C23.3105 13.4395 24.082 12.873 24.9902 12.4727C25.9082 12.0625 26.9434 11.8574 28.0957 11.8574C29.2578 11.8574 30.293 12.0625 31.2012 12.4727C32.1191 12.873 32.8955 13.4395 33.5303 14.1719C34.165 14.8945 34.6484 15.749 34.9805 16.7354C35.3125 17.7119 35.4785 18.7715 35.4785 19.9141V20.251C35.4785 21.3936 35.3125 22.4531 34.9805 23.4297C34.6484 24.4062 34.165 25.2607 33.5303 25.9932C32.8955 26.7158 32.124 27.2822 31.2158 27.6924C30.3076 28.0928 29.2773 28.293 28.125 28.293C26.9629 28.293 25.9229 28.0928 25.0049 27.6924C24.0967 27.2822 23.3252 26.7158 22.6904 25.9932C22.0557 25.2607 21.5723 24.4062 21.2402 23.4297C20.9082 22.4531 20.7422 21.3936 20.7422 20.251ZM24.2725 19.9141V20.251C24.2725 20.9639 24.3457 21.6377 24.4922 22.2725C24.6387 22.9072 24.8682 23.4639 25.1807 23.9424C25.4932 24.4209 25.8936 24.7969 26.3818 25.0703C26.8701 25.3438 27.4512 25.4805 28.125 25.4805C28.7793 25.4805 29.3457 25.3438 29.8242 25.0703C30.3125 24.7969 30.7129 24.4209 31.0254 23.9424C31.3379 23.4639 31.5674 22.9072 31.7139 22.2725C31.8701 21.6377 31.9482 20.9639 31.9482 20.251V19.9141C31.9482 19.2109 31.8701 18.5469 31.7139 17.9219C31.5674 17.2871 31.333 16.7256 31.0107 16.2373C30.6982 15.749 30.2979 15.3682 29.8096 15.0947C29.3311 14.8115 28.7598 14.6699 28.0957 14.6699C27.4316 14.6699 26.8555 14.8115 26.3672 15.0947C25.8887 15.3682 25.4932 15.749 25.1807 16.2373C24.8682 16.7256 24.6387 17.2871 24.4922 17.9219C24.3457 18.5469 24.2725 19.2109 24.2725 19.9141ZM41.9385 15.5342V28H38.4082V12.1504H41.7334L41.9385 15.5342ZM41.3086 19.4893L40.166 19.4746C40.1758 18.3516 40.332 17.3213 40.6348 16.3838C40.9473 15.4463 41.377 14.6406 41.9238 13.9668C42.4805 13.293 43.1445 12.7754 43.916 12.4141C44.6875 12.043 45.5469 11.8574 46.4941 11.8574C47.2559 11.8574 47.9443 11.9648 48.5596 12.1797C49.1846 12.3848 49.7168 12.7217 50.1562 13.1904C50.6055 13.6592 50.9473 14.2695 51.1816 15.0215C51.416 15.7637 51.5332 16.6768 51.5332 17.7607V28H47.9883V17.7461C47.9883 16.9844 47.876 16.3838 47.6514 15.9443C47.4365 15.4951 47.1191 15.1777 46.6992 14.9922C46.2891 14.7969 45.7764 14.6992 45.1611 14.6992C44.5557 14.6992 44.0137 14.8262 43.5352 15.0801C43.0566 15.334 42.6514 15.6807 42.3193 16.1201C41.9971 16.5596 41.748 17.0674 41.5723 17.6436C41.3965 18.2197 41.3086 18.835 41.3086 19.4893ZM64.8047 24.7188V5.5H68.3496V28H65.1416L64.8047 24.7188ZM54.4922 20.251V19.9434C54.4922 18.7422 54.6338 17.6484 54.917 16.6621C55.2002 15.666 55.6104 14.8115 56.1475 14.0986C56.6846 13.376 57.3389 12.8242 58.1104 12.4434C58.8818 12.0527 59.751 11.8574 60.7178 11.8574C61.6748 11.8574 62.5146 12.043 63.2373 12.4141C63.96 12.7852 64.5752 13.3174 65.083 14.0107C65.5908 14.6943 65.9961 15.5146 66.2988 16.4717C66.6016 17.4189 66.8164 18.4736 66.9434 19.6357V20.6172C66.8164 21.75 66.6016 22.7852 66.2988 23.7227C65.9961 24.6602 65.5908 25.4707 65.083 26.1543C64.5752 26.8379 63.9551 27.3652 63.2227 27.7363C62.5 28.1074 61.6553 28.293 60.6885 28.293C59.7314 28.293 58.8672 28.0928 58.0957 27.6924C57.334 27.292 56.6846 26.7305 56.1475 26.0078C55.6104 25.2852 55.2002 24.4355 54.917 23.459C54.6338 22.4727 54.4922 21.4033 54.4922 20.251ZM58.0225 19.9434V20.251C58.0225 20.9736 58.0859 21.6475 58.2129 22.2725C58.3496 22.8975 58.5596 23.4492 58.8428 23.9277C59.126 24.3965 59.4922 24.7676 59.9414 25.041C60.4004 25.3047 60.9473 25.4365 61.582 25.4365C62.3828 25.4365 63.042 25.2607 63.5596 24.9092C64.0771 24.5576 64.4824 24.084 64.7754 23.4883C65.0781 22.8828 65.2832 22.209 65.3906 21.4668V18.8154C65.332 18.2393 65.21 17.7021 65.0244 17.2041C64.8486 16.7061 64.6094 16.2715 64.3066 15.9004C64.0039 15.5195 63.6279 15.2266 63.1787 15.0215C62.7393 14.8066 62.2168 14.6992 61.6113 14.6992C60.9668 14.6992 60.4199 14.8359 59.9707 15.1094C59.5215 15.3828 59.1504 15.7588 58.8574 16.2373C58.5742 16.7158 58.3643 17.2725 58.2275 17.9072C58.0908 18.542 58.0225 19.2207 58.0225 19.9434ZM71.3672 20.251V19.9141C71.3672 18.7715 71.5332 17.7119 71.8652 16.7354C72.1973 15.749 72.6758 14.8945 73.3008 14.1719C73.9355 13.4395 74.707 12.873 75.6152 12.4727C76.5332 12.0625 77.5684 11.8574 78.7207 11.8574C79.8828 11.8574 80.918 12.0625 81.8262 12.4727C82.7441 12.873 83.5205 13.4395 84.1553 14.1719C84.79 14.8945 85.2734 15.749 85.6055 16.7354C85.9375 17.7119 86.1035 18.7715 86.1035 19.9141V20.251C86.1035 21.3936 85.9375 22.4531 85.6055 23.4297C85.2734 24.4062 84.79 25.2607 84.1553 25.9932C83.5205 26.7158 82.749 27.2822 81.8408 27.6924C80.9326 28.0928 79.9023 28.293 78.75 28.293C77.5879 28.293 76.5479 28.0928 75.6299 27.6924C74.7217 27.2822 73.9502 26.7158 73.3154 25.9932C72.6807 25.2607 72.1973 24.4062 71.8652 23.4297C71.5332 22.4531 71.3672 21.3936 71.3672 20.251ZM74.8975 19.9141V20.251C74.8975 20.9639 74.9707 21.6377 75.1172 22.2725C75.2637 22.9072 75.4932 23.4639 75.8057 23.9424C76.1182 24.4209 76.5186 24.7969 77.0068 25.0703C77.4951 25.3438 78.0762 25.4805 78.75 25.4805C79.4043 25.4805 79.9707 25.3438 80.4492 25.0703C80.9375 24.7969 81.3379 24.4209 81.6504 23.9424C81.9629 23.4639 82.1924 22.9072 82.3389 22.2725C82.4951 21.6377 82.5732 20.9639 82.5732 20.251V19.9141C82.5732 19.2109 82.4951 18.5469 82.3389 17.9219C82.1924 17.2871 81.958 16.7256 81.6357 16.2373C81.3232 15.749 80.9229 15.3682 80.4346 15.0947C79.9561 14.8115 79.3848 14.6699 78.7207 14.6699C78.0566 14.6699 77.4805 14.8115 76.9922 15.0947C76.5137 15.3682 76.1182 15.749 75.8057 16.2373C75.4932 16.7256 75.2637 17.2871 75.1172 17.9219C74.9707 18.5469 74.8975 19.2109 74.8975 19.9141ZM92.5928 15.373V28H89.0625V12.1504H92.3877L92.5928 15.373ZM92.0215 19.4893L90.8203 19.4746C90.8203 18.3809 90.957 17.3701 91.2305 16.4424C91.5039 15.5146 91.9043 14.709 92.4316 14.0254C92.959 13.332 93.6133 12.7998 94.3945 12.4287C95.1855 12.0479 96.0986 11.8574 97.1338 11.8574C97.8564 11.8574 98.5156 11.9648 99.1113 12.1797C99.7168 12.3848 100.239 12.7119 100.679 13.1611C101.128 13.6104 101.47 14.1865 101.704 14.8896C101.948 15.5928 102.07 16.4424 102.07 17.4385V28H98.54V17.7461C98.54 16.9746 98.4229 16.3691 98.1885 15.9297C97.9639 15.4902 97.6367 15.1777 97.207 14.9922C96.7871 14.7969 96.2842 14.6992 95.6982 14.6992C95.0342 14.6992 94.4678 14.8262 93.999 15.0801C93.54 15.334 93.1641 15.6807 92.8711 16.1201C92.5781 16.5596 92.3633 17.0674 92.2266 17.6436C92.0898 18.2197 92.0215 18.835 92.0215 19.4893ZM101.851 18.5518L100.195 18.918C100.195 17.9609 100.327 17.0576 100.591 16.208C100.864 15.3486 101.26 14.5967 101.777 13.9521C102.305 13.2979 102.954 12.7852 103.726 12.4141C104.497 12.043 105.381 11.8574 106.377 11.8574C107.188 11.8574 107.91 11.9697 108.545 12.1943C109.189 12.4092 109.736 12.751 110.186 13.2197C110.635 13.6885 110.977 14.2988 111.211 15.0508C111.445 15.793 111.562 16.6914 111.562 17.7461V28H108.018V17.7314C108.018 16.9307 107.9 16.3105 107.666 15.8711C107.441 15.4316 107.119 15.1289 106.699 14.9629C106.279 14.7871 105.776 14.6992 105.19 14.6992C104.644 14.6992 104.16 14.8018 103.74 15.0068C103.33 15.2021 102.983 15.4805 102.7 15.8418C102.417 16.1934 102.202 16.5986 102.056 17.0576C101.919 17.5166 101.851 18.0146 101.851 18.5518ZM119.019 12.1504V28H115.488V12.1504H119.019ZM115.518 10.041L118.374 5.63184H122.358L118.374 10.041H115.518ZM126.548 15.5342V28H123.018V12.1504H126.343L126.548 15.5342ZM125.918 19.4893L124.775 19.4746C124.785 18.3516 124.941 17.3213 125.244 16.3838C125.557 15.4463 125.986 14.6406 126.533 13.9668C127.09 13.293 127.754 12.7754 128.525 12.4141C129.297 12.043 130.156 11.8574 131.104 11.8574C131.865 11.8574 132.554 11.9648 133.169 12.1797C133.794 12.3848 134.326 12.7217 134.766 13.1904C135.215 13.6592 135.557 14.2695 135.791 15.0215C136.025 15.7637 136.143 16.6768 136.143 17.7607V28H132.598V17.7461C132.598 16.9844 132.485 16.3838 132.261 15.9443C132.046 15.4951 131.729 15.1777 131.309 14.9922C130.898 14.7969 130.386 14.6992 129.771 14.6992C129.165 14.6992 128.623 14.8262 128.145 15.0801C127.666 15.334 127.261 15.6807 126.929 16.1201C126.606 16.5596 126.357 17.0674 126.182 17.6436C126.006 18.2197 125.918 18.835 125.918 19.4893ZM143.525 12.1504V28H139.98V12.1504H143.525ZM139.746 7.99023C139.746 7.45312 139.922 7.00879 140.273 6.65723C140.635 6.2959 141.133 6.11523 141.768 6.11523C142.393 6.11523 142.886 6.2959 143.247 6.65723C143.608 7.00879 143.789 7.45312 143.789 7.99023C143.789 8.51758 143.608 8.95703 143.247 9.30859C142.886 9.66016 142.393 9.83594 141.768 9.83594C141.133 9.83594 140.635 9.66016 140.273 9.30859C139.922 8.95703 139.746 8.51758 139.746 7.99023ZM146.719 20.251V19.9141C146.719 18.7715 146.885 17.7119 147.217 16.7354C147.549 15.749 148.027 14.8945 148.652 14.1719C149.287 13.4395 150.059 12.873 150.967 12.4727C151.885 12.0625 152.92 11.8574 154.072 11.8574C155.234 11.8574 156.27 12.0625 157.178 12.4727C158.096 12.873 158.872 13.4395 159.507 14.1719C160.142 14.8945 160.625 15.749 160.957 16.7354C161.289 17.7119 161.455 18.7715 161.455 19.9141V20.251C161.455 21.3936 161.289 22.4531 160.957 23.4297C160.625 24.4062 160.142 25.2607 159.507 25.9932C158.872 26.7158 158.101 27.2822 157.192 27.6924C156.284 28.0928 155.254 28.293 154.102 28.293C152.939 28.293 151.899 28.0928 150.981 27.6924C150.073 27.2822 149.302 26.7158 148.667 25.9932C148.032 25.2607 147.549 24.4062 147.217 23.4297C146.885 22.4531 146.719 21.3936 146.719 20.251ZM150.249 19.9141V20.251C150.249 20.9639 150.322 21.6377 150.469 22.2725C150.615 22.9072 150.845 23.4639 151.157 23.9424C151.47 24.4209 151.87 24.7969 152.358 25.0703C152.847 25.3438 153.428 25.4805 154.102 25.4805C154.756 25.4805 155.322 25.3438 155.801 25.0703C156.289 24.7969 156.689 24.4209 157.002 23.9424C157.314 23.4639 157.544 22.9072 157.69 22.2725C157.847 21.6377 157.925 20.9639 157.925 20.251V19.9141C157.925 19.2109 157.847 18.5469 157.69 17.9219C157.544 17.2871 157.31 16.7256 156.987 16.2373C156.675 15.749 156.274 15.3682 155.786 15.0947C155.308 14.8115 154.736 14.6699 154.072 14.6699C153.408 14.6699 152.832 14.8115 152.344 15.0947C151.865 15.3682 151.47 15.749 151.157 16.2373C150.845 16.7256 150.615 17.2871 150.469 17.9219C150.322 18.5469 150.249 19.2109 150.249 19.9141Z" fill="white"/>
<path d="M28.4268 71.0752H39.0225C38.8812 74.1429 38.0537 76.8473 36.54 79.1885C35.0264 81.5296 32.9274 83.3561 30.2432 84.668C27.5791 85.9596 24.4307 86.6055 20.7979 86.6055C17.8512 86.6055 15.2174 86.111 12.8965 85.1221C10.5957 84.1331 8.63802 82.7103 7.02344 80.8535C5.42904 78.9967 4.20801 76.7464 3.36035 74.1025C2.53288 71.4587 2.11914 68.4818 2.11914 65.1719V62.7803C2.11914 59.4704 2.55306 56.4935 3.4209 53.8496C4.30892 51.1855 5.56022 48.9251 7.1748 47.0684C8.80957 45.1914 10.7673 43.7585 13.0479 42.7695C15.3285 41.7806 17.8613 41.2861 20.6465 41.2861C24.4811 41.2861 27.7204 41.9723 30.3643 43.3447C33.0081 44.7171 35.0566 46.6042 36.5098 49.0059C37.9629 51.3874 38.8206 54.1019 39.083 57.1494H28.4873C28.4469 55.4945 28.1644 54.112 27.6396 53.002C27.1149 51.8717 26.2874 51.0241 25.1572 50.459C24.027 49.8939 22.5234 49.6113 20.6465 49.6113C19.3346 49.6113 18.1943 49.8535 17.2256 50.3379C16.2568 50.8223 15.4495 51.5892 14.8037 52.6387C14.1579 53.6882 13.6735 55.0505 13.3506 56.7256C13.0479 58.3805 12.8965 60.3786 12.8965 62.7197V65.1719C12.8965 67.513 13.0378 69.5111 13.3203 71.166C13.6029 72.821 14.057 74.1732 14.6826 75.2227C15.3083 76.2721 16.1156 77.0492 17.1045 77.5537C18.1136 78.0381 19.3447 78.2803 20.7979 78.2803C22.4124 78.2803 23.7747 78.028 24.8848 77.5234C25.9948 76.9987 26.8525 76.2116 27.458 75.1621C28.0635 74.0924 28.3864 72.7301 28.4268 71.0752ZM53.5537 39.5V86H43.3516V39.5H53.5537ZM52.3428 68.502L49.9512 68.5625C49.9512 66.2617 50.2337 64.1426 50.7988 62.2051C51.3639 60.2676 52.1712 58.5824 53.2207 57.1494C54.2702 55.7165 55.5316 54.6064 57.0049 53.8193C58.4782 53.0322 60.113 52.6387 61.9092 52.6387C63.5238 52.6387 64.9971 52.8708 66.3291 53.335C67.6813 53.7992 68.8418 54.5459 69.8105 55.5752C70.7995 56.6045 71.5563 57.9466 72.0811 59.6016C72.626 61.2565 72.8984 63.2747 72.8984 65.6562V86H62.6357V65.5957C62.6357 64.2637 62.444 63.2344 62.0605 62.5078C61.6973 61.7611 61.1725 61.2464 60.4863 60.9639C59.8001 60.6611 58.9626 60.5098 57.9736 60.5098C56.7829 60.5098 55.8141 60.7116 55.0674 61.1152C54.3206 61.5189 53.7454 62.084 53.3418 62.8105C52.9583 63.5169 52.696 64.3545 52.5547 65.3232C52.4134 66.292 52.3428 67.3516 52.3428 68.502ZM95.5732 77.7656V64.2637C95.5732 63.3353 95.4421 62.5381 95.1797 61.8721C94.9173 61.2061 94.5036 60.6914 93.9385 60.3281C93.3734 59.9447 92.6165 59.7529 91.668 59.7529C90.901 59.7529 90.2451 59.8841 89.7002 60.1465C89.1553 60.4089 88.7415 60.8024 88.459 61.3271C88.1764 61.8519 88.0352 62.5179 88.0352 63.3252H77.833C77.833 61.8115 78.166 60.4089 78.832 59.1172C79.5182 57.8053 80.487 56.665 81.7383 55.6963C83.0098 54.7275 84.5234 53.9808 86.2793 53.4561C88.0553 52.9111 90.0332 52.6387 92.2129 52.6387C94.8164 52.6387 97.1374 53.0726 99.1758 53.9404C101.234 54.8083 102.859 56.11 104.05 57.8457C105.241 59.5612 105.836 61.7207 105.836 64.3242V77.7354C105.836 79.8747 105.957 81.4993 106.199 82.6094C106.441 83.6992 106.785 84.6579 107.229 85.4854V86H96.9961C96.5117 84.9909 96.1484 83.7598 95.9062 82.3066C95.6842 80.8333 95.5732 79.3197 95.5732 77.7656ZM96.8145 65.9893L96.875 71.4385H92.3643C91.4157 71.4385 90.6084 71.5697 89.9424 71.832C89.2965 72.0944 88.7718 72.4577 88.3682 72.9219C87.9847 73.3659 87.7021 73.8704 87.5205 74.4355C87.359 75.0007 87.2783 75.596 87.2783 76.2217C87.2783 76.8271 87.4196 77.3721 87.7021 77.8564C88.0049 78.3206 88.4085 78.6839 88.9131 78.9463C89.4176 79.2087 89.9827 79.3398 90.6084 79.3398C91.7386 79.3398 92.6973 79.1279 93.4844 78.7041C94.2917 78.2601 94.9072 77.7253 95.3311 77.0996C95.7549 76.474 95.9668 75.8887 95.9668 75.3438L98.207 79.5215C97.8034 80.3288 97.3392 81.1462 96.8145 81.9736C96.3099 82.8011 95.6742 83.568 94.9072 84.2744C94.1605 84.9606 93.2422 85.5257 92.1523 85.9697C91.0625 86.3936 89.7406 86.6055 88.1865 86.6055C86.1683 86.6055 84.3115 86.1917 82.6162 85.3643C80.9411 84.5368 79.599 83.3864 78.5898 81.9131C77.5807 80.4196 77.0762 78.7041 77.0762 76.7666C77.0762 75.0713 77.3789 73.5576 77.9844 72.2256C78.61 70.8936 79.5485 69.7633 80.7998 68.835C82.0511 67.9066 83.6455 67.2002 85.583 66.7158C87.5205 66.2314 89.8011 65.9893 92.4248 65.9893H96.8145ZM121.79 60.1768V86H111.588V53.2441H121.154L121.79 60.1768ZM120.549 68.502L118.218 68.5625C118.218 66.2617 118.49 64.1426 119.035 62.2051C119.58 60.2676 120.387 58.5824 121.457 57.1494C122.527 55.7165 123.839 54.6064 125.393 53.8193C126.967 53.0322 128.783 52.6387 130.842 52.6387C132.275 52.6387 133.576 52.8607 134.747 53.3047C135.918 53.7285 136.927 54.4046 137.774 55.333C138.622 56.2412 139.268 57.432 139.712 58.9053C140.176 60.3584 140.408 62.1042 140.408 64.1426V86H130.206V65.4443C130.206 64.0518 130.045 63.0023 129.722 62.2959C129.419 61.5895 128.975 61.1152 128.39 60.873C127.804 60.6309 127.088 60.5098 126.24 60.5098C125.352 60.5098 124.555 60.7116 123.849 61.1152C123.142 61.5189 122.537 62.084 122.032 62.8105C121.548 63.5169 121.174 64.3545 120.912 65.3232C120.67 66.292 120.549 67.3516 120.549 68.502ZM139.258 68.502L136.412 68.5625C136.412 66.2617 136.664 64.1426 137.169 62.2051C137.694 60.2676 138.471 58.5824 139.5 57.1494C140.549 55.7165 141.851 54.6064 143.405 53.8193C144.959 53.0322 146.766 52.6387 148.824 52.6387C150.318 52.6387 151.69 52.8607 152.941 53.3047C154.193 53.7487 155.272 54.4652 156.181 55.4541C157.089 56.443 157.795 57.7549 158.3 59.3896C158.804 61.0042 159.057 63.0023 159.057 65.3838V86H148.824V65.3838C148.824 64.0316 148.663 63.0124 148.34 62.3262C148.037 61.6198 147.593 61.1455 147.008 60.9033C146.423 60.641 145.726 60.5098 144.919 60.5098C143.95 60.5098 143.113 60.7116 142.406 61.1152C141.7 61.5189 141.104 62.084 140.62 62.8105C140.156 63.5169 139.813 64.3545 139.591 65.3232C139.369 66.292 139.258 67.3516 139.258 68.502ZM164.99 39.5H175.192V77.9473L174.133 86H164.99V39.5ZM195.294 69.2588V69.8945C195.294 72.377 195.042 74.6374 194.537 76.6758C194.033 78.7142 193.256 80.4801 192.206 81.9736C191.157 83.4469 189.835 84.5872 188.24 85.3945C186.646 86.2018 184.759 86.6055 182.579 86.6055C180.601 86.6055 178.906 86.1816 177.493 85.334C176.08 84.4661 174.9 83.2754 173.951 81.7617C173.003 80.2279 172.236 78.4619 171.65 76.4639C171.065 74.4456 170.601 72.2861 170.258 69.9854V69.2285C170.601 66.9479 171.065 64.8086 171.65 62.8105C172.236 60.7923 173.003 59.0264 173.951 57.5127C174.9 55.9788 176.07 54.7881 177.463 53.9404C178.876 53.0726 180.561 52.6387 182.519 52.6387C184.718 52.6387 186.616 53.0524 188.21 53.8799C189.825 54.7074 191.157 55.8678 192.206 57.3613C193.256 58.8548 194.033 60.6107 194.537 62.6289C195.042 64.6471 195.294 66.8571 195.294 69.2588ZM185.092 69.8945V69.2588C185.092 68.068 185.021 66.9479 184.88 65.8984C184.739 64.849 184.486 63.9206 184.123 63.1133C183.76 62.306 183.245 61.6702 182.579 61.2061C181.913 60.7419 181.045 60.5098 179.976 60.5098C178.886 60.5098 177.967 60.6914 177.221 61.0547C176.494 61.418 175.909 61.9427 175.465 62.6289C175.041 63.2949 174.738 64.1224 174.557 65.1113C174.375 66.0801 174.294 67.18 174.314 68.4111V70.8027C174.274 72.4779 174.425 73.9108 174.769 75.1016C175.112 76.2923 175.707 77.2005 176.555 77.8262C177.402 78.4518 178.563 78.7646 180.036 78.7646C181.126 78.7646 182.004 78.5527 182.67 78.1289C183.356 77.7051 183.871 77.0996 184.214 76.3125C184.557 75.5254 184.789 74.5869 184.91 73.4971C185.031 72.4072 185.092 71.2064 185.092 69.8945ZM215.698 86.6055C213.034 86.6055 210.653 86.1917 208.554 85.3643C206.455 84.5166 204.679 83.3561 203.226 81.8828C201.793 80.4095 200.693 78.7142 199.926 76.7969C199.179 74.8796 198.806 72.8512 198.806 70.7119V69.5615C198.806 67.1598 199.139 64.9398 199.805 62.9014C200.471 60.8428 201.46 59.0465 202.771 57.5127C204.083 55.9788 205.728 54.7881 207.706 53.9404C209.684 53.0726 211.985 52.6387 214.608 52.6387C216.929 52.6387 219.008 53.012 220.845 53.7588C222.681 54.5055 224.235 55.5752 225.507 56.9678C226.799 58.3604 227.777 60.0456 228.443 62.0234C229.13 64.0013 229.473 66.2214 229.473 68.6836V72.8311H202.711V66.4434H219.513V65.6562C219.533 64.5664 219.341 63.638 218.938 62.8711C218.554 62.1042 217.989 61.5189 217.242 61.1152C216.495 60.7116 215.587 60.5098 214.518 60.5098C213.408 60.5098 212.489 60.752 211.763 61.2363C211.056 61.7207 210.501 62.3867 210.098 63.2344C209.714 64.0618 209.442 65.0205 209.28 66.1104C209.119 67.2002 209.038 68.3506 209.038 69.5615V70.7119C209.038 71.9229 209.2 73.0228 209.522 74.0117C209.866 75.0007 210.35 75.8483 210.976 76.5547C211.621 77.2409 212.388 77.7757 213.276 78.1592C214.185 78.5426 215.214 78.7344 216.364 78.7344C217.757 78.7344 219.129 78.472 220.481 77.9473C221.834 77.4225 222.994 76.5547 223.963 75.3438L228.595 80.8535C227.929 81.8021 226.98 82.7204 225.749 83.6084C224.538 84.4964 223.085 85.223 221.39 85.7881C219.694 86.333 217.797 86.6055 215.698 86.6055ZM243.913 61.3574V86H233.711V53.2441H243.247L243.913 61.3574ZM253.601 53.002L253.419 62.4775C253.015 62.4372 252.47 62.3867 251.784 62.3262C251.098 62.2656 250.523 62.2354 250.059 62.2354C248.868 62.2354 247.839 62.3766 246.971 62.6592C246.123 62.9215 245.417 63.3252 244.852 63.8701C244.307 64.3949 243.903 65.0609 243.641 65.8682C243.398 66.6755 243.287 67.6139 243.308 68.6836L241.461 67.4727C241.461 65.2728 241.673 63.2747 242.097 61.4785C242.541 59.6621 243.166 58.098 243.974 56.7861C244.781 55.4541 245.76 54.4349 246.91 53.7285C248.061 53.002 249.352 52.6387 250.785 52.6387C251.29 52.6387 251.784 52.6689 252.269 52.7295C252.773 52.79 253.217 52.8809 253.601 53.002ZM271.28 69.9551V69.3193C271.28 66.9176 271.623 64.7077 272.31 62.6895C272.996 60.651 274.005 58.8851 275.337 57.3916C276.669 55.8981 278.314 54.7376 280.271 53.9102C282.229 53.0625 284.49 52.6387 287.053 52.6387C289.636 52.6387 291.907 53.0625 293.864 53.9102C295.842 54.7376 297.497 55.8981 298.829 57.3916C300.161 58.8851 301.17 60.651 301.856 62.6895C302.543 64.7077 302.886 66.9176 302.886 69.3193V69.9551C302.886 72.3366 302.543 74.5465 301.856 76.585C301.17 78.6032 300.161 80.3691 298.829 81.8828C297.497 83.3763 295.852 84.5368 293.895 85.3643C291.937 86.1917 289.676 86.6055 287.113 86.6055C284.55 86.6055 282.28 86.1917 280.302 85.3643C278.324 84.5368 276.669 83.3763 275.337 81.8828C274.005 80.3691 272.996 78.6032 272.31 76.585C271.623 74.5465 271.28 72.3366 271.28 69.9551ZM281.482 69.3193V69.9551C281.482 71.1862 281.573 72.3366 281.755 73.4062C281.937 74.4759 282.239 75.4144 282.663 76.2217C283.087 77.0088 283.662 77.6243 284.389 78.0684C285.115 78.5124 286.023 78.7344 287.113 78.7344C288.183 78.7344 289.071 78.5124 289.777 78.0684C290.504 77.6243 291.079 77.0088 291.503 76.2217C291.927 75.4144 292.229 74.4759 292.411 73.4062C292.593 72.3366 292.684 71.1862 292.684 69.9551V69.3193C292.684 68.1286 292.593 67.0085 292.411 65.959C292.229 64.8893 291.927 63.9508 291.503 63.1436C291.079 62.3161 290.504 61.6702 289.777 61.2061C289.051 60.7419 288.143 60.5098 287.053 60.5098C285.983 60.5098 285.085 60.7419 284.358 61.2061C283.652 61.6702 283.087 62.3161 282.663 63.1436C282.239 63.9508 281.937 64.8893 281.755 65.959C281.573 67.0085 281.482 68.1286 281.482 69.3193ZM319.93 86H309.667V50.5801C309.667 48.0371 310.182 45.8978 311.211 44.1621C312.24 42.4264 313.693 41.1146 315.57 40.2266C317.447 39.3184 319.667 38.8643 322.23 38.8643C323.118 38.8643 323.956 38.9248 324.743 39.0459C325.53 39.167 326.297 39.3184 327.044 39.5L327.074 47.0078C326.711 46.9069 326.338 46.8363 325.954 46.7959C325.571 46.7555 325.096 46.7354 324.531 46.7354C323.542 46.7354 322.705 46.8867 322.019 47.1895C321.332 47.472 320.808 47.9059 320.444 48.4912C320.101 49.0563 319.93 49.7526 319.93 50.5801V86ZM326.287 53.2441V60.3281H304.944V53.2441H326.287ZM368.579 74.2842C368.579 73.598 368.478 72.9824 368.276 72.4375C368.075 71.8724 367.701 71.3477 367.156 70.8633C366.611 70.3789 365.824 69.8945 364.795 69.4102C363.786 68.9056 362.454 68.3809 360.799 67.8359C358.861 67.1901 356.994 66.4635 355.198 65.6562C353.402 64.8288 351.798 63.8701 350.385 62.7803C348.972 61.6702 347.852 60.3786 347.024 58.9053C346.197 57.4118 345.783 55.6761 345.783 53.6982C345.783 51.8011 346.207 50.0957 347.055 48.582C347.902 47.0482 349.083 45.7464 350.597 44.6768C352.131 43.5869 353.927 42.7594 355.985 42.1943C358.044 41.609 360.294 41.3164 362.736 41.3164C365.965 41.3164 368.811 41.8815 371.273 43.0117C373.756 44.1217 375.693 45.7061 377.086 47.7646C378.499 49.8031 379.205 52.2148 379.205 55H368.64C368.64 53.89 368.408 52.9111 367.943 52.0635C367.499 51.2158 366.823 50.5498 365.915 50.0654C365.007 49.5811 363.867 49.3389 362.494 49.3389C361.162 49.3389 360.042 49.5407 359.134 49.9443C358.226 50.348 357.539 50.8929 357.075 51.5791C356.611 52.2451 356.379 52.9818 356.379 53.7891C356.379 54.4551 356.561 55.0605 356.924 55.6055C357.307 56.1302 357.842 56.6247 358.528 57.0889C359.235 57.5531 360.082 57.9971 361.071 58.4209C362.08 58.8447 363.211 59.2585 364.462 59.6621C366.803 60.4089 368.882 61.2464 370.698 62.1748C372.535 63.083 374.079 64.1224 375.33 65.293C376.602 66.4434 377.56 67.7552 378.206 69.2285C378.872 70.7018 379.205 72.3669 379.205 74.2236C379.205 76.2015 378.822 77.9574 378.055 79.4912C377.288 81.0251 376.188 82.3268 374.755 83.3965C373.322 84.446 371.606 85.2432 369.608 85.7881C367.61 86.333 365.38 86.6055 362.918 86.6055C360.658 86.6055 358.427 86.3229 356.228 85.7578C354.048 85.1725 352.07 84.2845 350.294 83.0938C348.518 81.8828 347.095 80.3389 346.025 78.4619C344.976 76.5648 344.451 74.3145 344.451 71.7109H355.107C355.107 73.0026 355.279 74.0924 355.622 74.9805C355.965 75.8685 356.47 76.585 357.136 77.1299C357.802 77.6546 358.619 78.0381 359.588 78.2803C360.557 78.5023 361.667 78.6133 362.918 78.6133C364.27 78.6133 365.36 78.4215 366.188 78.0381C367.015 77.6344 367.62 77.1097 368.004 76.4639C368.387 75.7979 368.579 75.0713 368.579 74.2842ZM400.063 86.6055C397.399 86.6055 395.018 86.1917 392.919 85.3643C390.82 84.5166 389.044 83.3561 387.591 81.8828C386.158 80.4095 385.058 78.7142 384.291 76.7969C383.544 74.8796 383.171 72.8512 383.171 70.7119V69.5615C383.171 67.1598 383.504 64.9398 384.17 62.9014C384.836 60.8428 385.825 59.0465 387.137 57.5127C388.449 55.9788 390.093 54.7881 392.071 53.9404C394.049 53.0726 396.35 52.6387 398.974 52.6387C401.295 52.6387 403.373 53.012 405.21 53.7588C407.047 54.5055 408.601 55.5752 409.872 56.9678C411.164 58.3604 412.143 60.0456 412.809 62.0234C413.495 64.0013 413.838 66.2214 413.838 68.6836V72.8311H387.076V66.4434H403.878V65.6562C403.898 64.5664 403.706 63.638 403.303 62.8711C402.919 62.1042 402.354 61.5189 401.607 61.1152C400.861 60.7116 399.952 60.5098 398.883 60.5098C397.773 60.5098 396.854 60.752 396.128 61.2363C395.422 61.7207 394.867 62.3867 394.463 63.2344C394.079 64.0618 393.807 65.0205 393.646 66.1104C393.484 67.2002 393.403 68.3506 393.403 69.5615V70.7119C393.403 71.9229 393.565 73.0228 393.888 74.0117C394.231 75.0007 394.715 75.8483 395.341 76.5547C395.987 77.2409 396.754 77.7757 397.642 78.1592C398.55 78.5426 399.579 78.7344 400.729 78.7344C402.122 78.7344 403.494 78.472 404.847 77.9473C406.199 77.4225 407.359 76.5547 408.328 75.3438L412.96 80.8535C412.294 81.8021 411.345 82.7204 410.114 83.6084C408.903 84.4964 407.45 85.223 405.755 85.7881C404.06 86.333 402.162 86.6055 400.063 86.6055ZM431.82 78.7344C432.769 78.7344 433.576 78.5628 434.242 78.2197C434.928 77.8564 435.443 77.3519 435.786 76.7061C436.149 76.04 436.321 75.2428 436.301 74.3145H445.897C445.918 76.7767 445.312 78.9362 444.081 80.793C442.87 82.6296 441.215 84.0625 439.116 85.0918C437.037 86.1009 434.686 86.6055 432.062 86.6055C429.499 86.6055 427.259 86.1917 425.342 85.3643C423.424 84.5166 421.82 83.346 420.528 81.8525C419.257 80.3389 418.298 78.5729 417.652 76.5547C417.027 74.5365 416.714 72.3467 416.714 69.9854V69.2891C416.714 66.9277 417.027 64.738 417.652 62.7197C418.298 60.6813 419.257 58.9154 420.528 57.4219C421.82 55.9082 423.414 54.7376 425.312 53.9102C427.229 53.0625 429.459 52.6387 432.002 52.6387C434.727 52.6387 437.128 53.1533 439.207 54.1826C441.306 55.2119 442.951 56.7054 444.142 58.6631C445.332 60.6208 445.918 62.9922 445.897 65.7773H436.301C436.321 64.7884 436.17 63.9004 435.847 63.1133C435.524 62.3262 435.019 61.7005 434.333 61.2363C433.667 60.752 432.809 60.5098 431.76 60.5098C430.71 60.5098 429.863 60.7419 429.217 61.2061C428.571 61.6702 428.076 62.3161 427.733 63.1436C427.41 63.9508 427.188 64.8792 427.067 65.9287C426.966 66.9782 426.916 68.0983 426.916 69.2891V69.9854C426.916 71.1963 426.966 72.3366 427.067 73.4062C427.188 74.4557 427.421 75.3841 427.764 76.1914C428.107 76.9785 428.601 77.6042 429.247 78.0684C429.893 78.5124 430.751 78.7344 431.82 78.7344ZM460.55 61.3574V86H450.348V53.2441H459.884L460.55 61.3574ZM470.237 53.002L470.056 62.4775C469.652 62.4372 469.107 62.3867 468.421 62.3262C467.735 62.2656 467.16 62.2354 466.695 62.2354C465.505 62.2354 464.475 62.3766 463.607 62.6592C462.76 62.9215 462.053 63.3252 461.488 63.8701C460.943 64.3949 460.54 65.0609 460.277 65.8682C460.035 66.6755 459.924 67.6139 459.944 68.6836L458.098 67.4727C458.098 65.2728 458.31 63.2747 458.733 61.4785C459.177 59.6621 459.803 58.098 460.61 56.7861C461.418 55.4541 462.396 54.4349 463.547 53.7285C464.697 53.002 465.989 52.6387 467.422 52.6387C467.926 52.6387 468.421 52.6689 468.905 52.7295C469.41 52.79 469.854 52.8809 470.237 53.002ZM489.007 86.6055C486.343 86.6055 483.961 86.1917 481.862 85.3643C479.763 84.5166 477.987 83.3561 476.534 81.8828C475.101 80.4095 474.001 78.7142 473.234 76.7969C472.488 74.8796 472.114 72.8512 472.114 70.7119V69.5615C472.114 67.1598 472.447 64.9398 473.113 62.9014C473.779 60.8428 474.768 59.0465 476.08 57.5127C477.392 55.9788 479.037 54.7881 481.015 53.9404C482.993 53.0726 485.293 52.6387 487.917 52.6387C490.238 52.6387 492.317 53.012 494.153 53.7588C495.99 54.5055 497.544 55.5752 498.815 56.9678C500.107 58.3604 501.086 60.0456 501.752 62.0234C502.438 64.0013 502.781 66.2214 502.781 68.6836V72.8311H476.02V66.4434H492.821V65.6562C492.841 64.5664 492.65 63.638 492.246 62.8711C491.863 62.1042 491.298 61.5189 490.551 61.1152C489.804 60.7116 488.896 60.5098 487.826 60.5098C486.716 60.5098 485.798 60.752 485.071 61.2363C484.365 61.7207 483.81 62.3867 483.406 63.2344C483.023 64.0618 482.75 65.0205 482.589 66.1104C482.427 67.2002 482.347 68.3506 482.347 69.5615V70.7119C482.347 71.9229 482.508 73.0228 482.831 74.0117C483.174 75.0007 483.659 75.8483 484.284 76.5547C484.93 77.2409 485.697 77.7757 486.585 78.1592C487.493 78.5426 488.522 78.7344 489.673 78.7344C491.065 78.7344 492.438 78.472 493.79 77.9473C495.142 77.4225 496.303 76.5547 497.271 75.3438L501.903 80.8535C501.237 81.8021 500.289 82.7204 499.058 83.6084C497.847 84.4964 496.394 85.223 494.698 85.7881C493.003 86.333 491.106 86.6055 489.007 86.6055ZM524.185 53.2441V60.3281H504.446V53.2441H524.185ZM508.594 45.1006H518.796V75.3135C518.796 76.1813 518.897 76.8574 519.099 77.3418C519.3 77.806 519.644 78.139 520.128 78.3408C520.632 78.5225 521.299 78.6133 522.126 78.6133C522.711 78.6133 523.196 78.6032 523.579 78.583C523.963 78.5426 524.326 78.4922 524.669 78.4316V85.7275C523.801 86.0101 522.893 86.222 521.944 86.3633C520.996 86.5247 519.987 86.6055 518.917 86.6055C516.737 86.6055 514.87 86.2624 513.316 85.5762C511.783 84.89 510.612 83.8102 509.805 82.3369C508.997 80.8636 508.594 78.9463 508.594 76.585V45.1006ZM545.406 76.7969C545.406 76.2318 545.215 75.7474 544.831 75.3438C544.468 74.9199 543.822 74.5365 542.894 74.1934C541.965 73.8301 540.663 73.4668 538.988 73.1035C537.394 72.7604 535.89 72.3063 534.478 71.7412C533.085 71.1761 531.864 70.4899 530.814 69.6826C529.765 68.8753 528.938 67.9167 528.332 66.8066C527.747 65.6966 527.454 64.4251 527.454 62.9922C527.454 61.5996 527.747 60.2878 528.332 59.0566C528.938 57.8053 529.815 56.7054 530.966 55.7568C532.136 54.7881 533.559 54.0312 535.234 53.4863C536.91 52.9212 538.817 52.6387 540.956 52.6387C543.903 52.6387 546.446 53.0928 548.585 54.001C550.724 54.889 552.369 56.1403 553.52 57.7549C554.69 59.3493 555.275 61.196 555.275 63.2949H545.073C545.073 62.4674 544.932 61.7611 544.649 61.1758C544.387 60.5905 543.953 60.1465 543.348 59.8438C542.742 59.5208 541.935 59.3594 540.926 59.3594C540.219 59.3594 539.574 59.4906 538.988 59.7529C538.423 60.0153 537.969 60.3786 537.626 60.8428C537.283 61.307 537.111 61.8519 537.111 62.4775C537.111 62.9215 537.212 63.3252 537.414 63.6885C537.636 64.0316 537.969 64.3545 538.413 64.6572C538.857 64.9398 539.422 65.2021 540.108 65.4443C540.795 65.6663 541.622 65.8682 542.591 66.0498C544.791 66.4535 546.849 67.0286 548.767 67.7754C550.684 68.5221 552.238 69.5817 553.429 70.9541C554.64 72.3265 555.245 74.1732 555.245 76.4941C555.245 77.9473 554.912 79.2894 554.246 80.5205C553.58 81.7314 552.621 82.8011 551.37 83.7295C550.119 84.6377 548.615 85.3441 546.859 85.8486C545.104 86.3532 543.126 86.6055 540.926 86.6055C537.798 86.6055 535.154 86.0505 532.994 84.9404C530.835 83.8102 529.2 82.3975 528.09 80.7021C527 78.9867 526.455 77.251 526.455 75.4951H535.961C536.001 76.5042 536.243 77.3317 536.688 77.9775C537.152 78.6234 537.767 79.0977 538.534 79.4004C539.301 79.7031 540.189 79.8545 541.198 79.8545C542.127 79.8545 542.894 79.7233 543.499 79.4609C544.125 79.1986 544.599 78.8454 544.922 78.4014C545.245 77.9372 545.406 77.4023 545.406 76.7969Z" fill="white"/>
</svg>
